<?xml version="1.0" encoding="UTF-8"?>
<svg version="1.1" xmlns="http://www.w3.org/2000/svg" width="100" height="100">
<path d="M0 0 C10.42882992 7.87176104 16.91604671 18.20644631 19.09375 31.16796875 C20.80586155 44.6508472 17.7967015 56.63119275 9.609375 67.51171875 C1.57472417 76.90888904 -7.10445857 82.29974375 -19.3125 84.75 C-21.9525 84.75 -24.5925 84.75 -27.3125 84.75 C-27.3125 78.81 -27.3125 72.87 -27.3125 66.75 C-32.9225 66.75 -38.5325 66.75 -44.3125 66.75 C-44.3125 71.37 -44.3125 75.99 -44.3125 80.75 C-48.9325 80.75 -53.5525 80.75 -58.3125 80.75 C-58.3125 76.13 -58.3125 71.51 -58.3125 66.75 C-54.0225 66.75 -49.7325 66.75 -45.3125 66.75 C-45.3125 60.81 -45.3125 54.87 -45.3125 48.75 C-39.0425 48.75 -32.7725 48.75 -26.3125 48.75 C-26.3125 54.69 -26.3125 60.63 -26.3125 66.75 C-16.49050835 63.84804792 -8.6831679 61.30873367 -3.375 52.125 C0.23130278 45.15688955 0.95202092 37.61565659 -1.03125 29.984375 C-4.22180768 21.39045351 -9.68938744 16.36540119 -18 12.5 C-28.11397107 10.21004429 -36.40388005 12.07352536 -45.125 17.5 C-51.19606099 23.74451988 -53.32280024 30.37231679 -55.3125 38.75 C-61.2525 38.75 -67.1925 38.75 -73.3125 38.75 C-73.3125 25.94989359 -68.80945572 14.4261311 -60.0625 5 C-43.74162469 -10.20890358 -18.61700234 -12.17908686 0 0 Z " fill="#686868" transform="translate(77.3125,10.25)"/>
<path d="M0 0 C3.96 0 7.92 0 12 0 C12 3.96 12 7.92 12 12 C8.04 12 4.08 12 0 12 C0 8.04 0 4.08 0 0 Z " fill="#686868" transform="translate(7,65)"/>
</svg>
